<svg width="476" height="96" viewBox="0 0 476 96" fill="none" xmlns="http://www.w3.org/2000/svg">
<g filter="url(#filter0_d_193_1105)">
<mask id="path-1-inside-1_193_1105" fill="white">
<path fill-rule="evenodd" clip-rule="evenodd" d="M17 11C15.8954 11 15 11.8954 15 13V64C15 65.1046 15.8954 66 17 66H307.536C308.039 66 308.523 66.1892 308.892 66.53L319.667 76.47C320.036 76.8108 320.52 77 321.023 77H459C460.105 77 461 76.1046 461 75V13C461 11.8954 460.105 11 459 11H17ZM17 77C15.8954 77 15 76.1046 15 75C15 76.1046 15.8954 77 17 77Z"/>
</mask>
<path fill-rule="evenodd" clip-rule="evenodd" d="M17 11C15.8954 11 15 11.8954 15 13V64C15 65.1046 15.8954 66 17 66H307.536C308.039 66 308.523 66.1892 308.892 66.53L319.667 76.47C320.036 76.8108 320.52 77 321.023 77H459C460.105 77 461 76.1046 461 75V13C461 11.8954 460.105 11 459 11H17ZM17 77C15.8954 77 15 76.1046 15 75C15 76.1046 15.8954 77 17 77Z" fill="url(#paint0_linear_193_1105)"/>
<path d="M319.667 76.47L321.023 75L319.667 76.47ZM308.892 66.53L307.536 68L308.892 66.53ZM17 13V13V9C14.7909 9 13 10.7909 13 13H17ZM17 64V13H13V64H17ZM17 68H307.536V64H17V68ZM307.536 68L318.311 77.94L321.023 75L310.248 65.06L307.536 68ZM459 75H321.023V79H459V75ZM459 75V79C461.209 79 463 77.2091 463 75H459ZM459 13V75H463V13H459ZM459 13H463C463 10.7909 461.209 9 459 9V13ZM17 13H459V9H17V13ZM17 75H17H13C13 77.2091 14.7909 79 17 79V75ZM13 75C13 77.2091 14.7909 79 17 79V75H17H13ZM318.311 77.94C319.049 78.6216 320.018 79 321.023 79V75H321.023L318.311 77.94ZM307.536 68L310.248 65.06C309.509 64.3784 308.541 64 307.536 64V68ZM13 64C13 66.2091 14.7909 68 17 68V64H17H13Z" fill="#05FFFF" mask="url(#path-1-inside-1_193_1105)"/>
</g>
<path d="M17.5881 68.8183C16.7888 68.2567 17.1861 67 18.163 67L254.14 67C254.4 67 254.649 67.1008 254.835 67.2811L263.109 75.2811C263.755 75.906 263.313 77 262.414 77H29.5502C29.3444 77 29.1437 76.9365 28.9753 76.8183L17.5881 68.8183Z" fill="#BEF4FF"/>
<path d="M293.702 68.7421C293.022 68.1284 293.456 67 294.372 67H305.622C305.87 67 306.109 67.0919 306.293 67.2579L315.149 75.2579C315.829 75.8716 315.395 77 314.479 77H303.229C302.981 77 302.742 76.9081 302.558 76.7421L293.702 68.7421Z" fill="#BEF4FF"/>
<path d="M276.305 68.7421C275.625 68.1284 276.059 67 276.975 67H288.225C288.473 67 288.712 67.0919 288.895 67.2579L297.752 75.2579C298.432 75.8716 297.997 77 297.082 77H285.832C285.584 77 285.345 76.9081 285.161 76.7421L276.305 68.7421Z" fill="#BEF4FF"/>
<path d="M258.907 68.7421C258.228 68.1284 258.662 67 259.578 67H270.828C271.076 67 271.315 67.0919 271.498 67.2579L280.355 75.2579C281.035 75.8716 280.6 77 279.685 77H268.434C268.187 77 267.948 76.9081 267.764 76.7421L258.907 68.7421Z" fill="#BEF4FF"/>
<defs>
<filter id="filter0_d_193_1105" x="0" y="0" width="476" height="96" filterUnits="userSpaceOnUse" color-interpolation-filters="sRGB">
<feFlood flood-opacity="0" result="BackgroundImageFix"/>
<feColorMatrix in="SourceAlpha" type="matrix" values="0 0 0 0 0 0 0 0 0 0 0 0 0 0 0 0 0 0 127 0" result="hardAlpha"/>
<feOffset dy="4"/>
<feGaussianBlur stdDeviation="7.5"/>
<feComposite in2="hardAlpha" operator="out"/>
<feColorMatrix type="matrix" values="0 0 0 0 0.0196078 0 0 0 0 1 0 0 0 0 1 0 0 0 0.56 0"/>
<feBlend mode="normal" in2="BackgroundImageFix" result="effect1_dropShadow_193_1105"/>
<feBlend mode="normal" in="SourceGraphic" in2="effect1_dropShadow_193_1105" result="shape"/>
</filter>
<linearGradient id="paint0_linear_193_1105" x1="317.181" y1="77" x2="317.181" y2="11" gradientUnits="userSpaceOnUse">
<stop stop-color="#001B3B"/>
<stop offset="0.993924" stop-color="#18A3A3"/>
</linearGradient>
</defs>
</svg>
