<svg width="11" height="21" viewBox="0 0 11 21" fill="none" xmlns="http://www.w3.org/2000/svg">
<path d="M0.842075 9.61761L0.842086 9.61759L8.47245 1.37394C8.47248 1.37391 8.47251 1.37387 8.47255 1.37383C8.47258 1.3738 8.47261 1.37376 8.47264 1.37373C8.58025 1.25739 8.71034 1.16338 8.85602 1.09863C9.00186 1.03381 9.15958 1 9.31962 1C9.47967 1 9.63739 1.0338 9.78323 1.09863C9.92899 1.16342 10.0591 1.25751 10.1668 1.37394C10.3825 1.60726 10.4993 1.91498 10.4993 2.23055C10.4993 2.54615 10.3825 2.85389 10.1668 3.0872L10.1666 3.08741L3.30545 10.4985L10.1663 17.9107L0.842075 9.61761ZM0.842075 9.61761C0.620195 9.85733 0.5 10.1738 0.5 10.4985M0.842075 9.61761L0.5 10.4985M0.5 10.4985C0.5 10.8231 0.620176 11.1395 0.842022 11.3792M0.5 10.4985L0.842022 11.3792M0.842022 11.3792C0.842039 11.3793 0.842057 11.3793 0.842075 11.3793M0.842022 11.3792L0.842075 11.3793M0.842075 11.3793L8.47244 19.6261L0.842075 11.3793ZM8.85602 19.9014C8.71031 19.8366 8.5802 19.7426 8.47258 19.6262L8.85602 19.9014ZM8.85602 19.9014C9.00186 19.9662 9.15957 20 9.31962 20M8.85602 19.9014L9.31962 20M9.31962 20C9.47967 20 9.63739 19.9662 9.78322 19.9014M9.31962 20L9.78322 19.9014M9.78322 19.9014C9.92875 19.8367 10.0587 19.7428 10.1663 19.6266M9.78322 19.9014L10.1663 19.6266M10.1663 19.6266C10.3828 19.3932 10.5 19.0849 10.5 18.7687C10.5 18.4526 10.3829 18.1445 10.1666 17.9111L10.1663 19.6266Z" fill="white" stroke="white"/>
</svg>
