<svg width="17" height="14" viewBox="0 0 17 14" fill="none" xmlns="http://www.w3.org/2000/svg">
<path d="M3.33778 13.5013L3.33783 13.5017C3.33741 13.5019 3.33702 13.502 3.33669 13.5022C3.33586 13.5018 3.33474 13.5011 3.33342 13.5C3.32991 13.4971 3.32857 13.4942 3.32827 13.4932L3.32811 13.4919C3.3281 13.4914 3.32813 13.4888 3.32964 13.4835L3.32972 13.4832L4.59323 9.06871L4.67039 8.79914L4.48682 8.61368L1.38702 5.48184C1.38357 5.47834 1.38266 5.47638 1.38261 5.47627L1.38238 5.47549C1.38219 5.47413 1.3821 5.46939 1.38485 5.46274C1.38668 5.45832 1.38867 5.45568 1.38973 5.45446C1.39054 5.45427 1.39175 5.45402 1.39344 5.4538L1.39415 5.4537L6.22202 4.80412L6.48123 4.76924L6.6243 4.54183L9.16483 0.503571C9.16698 0.500165 9.16848 0.498473 9.16906 0.49787C9.16966 0.497679 9.17098 0.497345 9.17297 0.497345C9.17495 0.497345 9.1762 0.497679 9.17676 0.497871C9.17722 0.498473 9.17837 0.500166 9.17981 0.503571L10.8846 4.54183L10.9806 4.76924L11.2326 4.80412L15.9261 5.4537L15.9268 5.4538C15.9284 5.45402 15.9295 5.45426 15.9303 5.45445C15.9311 5.45565 15.9325 5.45822 15.9333 5.46245C15.9347 5.46895 15.9336 5.47356 15.9332 5.47482L15.9328 5.47559C15.9327 5.47572 15.9313 5.47775 15.927 5.48133L15.9267 5.48157L12.1794 8.61373L11.9575 8.79919L11.9789 9.06871L12.3288 13.4832L12.3289 13.4835C12.3293 13.4888 12.3288 13.4914 12.3287 13.4919L12.3282 13.4932C12.3277 13.4942 12.3258 13.4971 12.3217 13.5C12.3201 13.5011 12.3189 13.5018 12.318 13.5022C12.3174 13.5019 12.3167 13.5016 12.3159 13.5012C12.3158 13.5012 12.3158 13.5011 12.3157 13.5011L8.26599 11.3957L8.05511 11.2861L7.82157 11.3958L3.33778 13.5013Z" fill="#24221B" stroke="#05FFFF"/>
</svg>
